<?xml version="1.0" encoding="UTF-8"?> <svg xmlns="http://www.w3.org/2000/svg" xmlns:xlink="http://www.w3.org/1999/xlink" viewBox="0 0 192.136 249.473"><defs><style>.cls-1{fill:none;}.cls-2{clip-path:url(#clip-path);}.cls-3{clip-path:url(#clip-path-2);}.cls-4{fill:#fff;}.cls-5{fill:#4f5c30;}.cls-5,.cls-6,.cls-7,.cls-8,.cls-9{fill-rule:evenodd;}.cls-6{fill:#2b863a;}.cls-7{fill:#b41c21;}.cls-8{fill:#8a976b;}.cls-9{fill:#a9bc02;}</style><clipPath id="clip-path" transform="translate(-4.492)"><polygon class="cls-1" points="209.079 254.771 0 254.771 0 89.015 92.481 90.33 209.079 91.987 209.079 254.771"></polygon></clipPath><clipPath id="clip-path-2" transform="translate(-4.492)"><rect class="cls-1" x="4.492" y="0.137" width="194.606" height="249.339"></rect></clipPath></defs><title>logo</title><g id="Layer_2" data-name="Layer 2"><g id="Layer_1-2" data-name="Layer 1"><g class="cls-2"><g class="cls-3"><path class="cls-4" d="M106,76.7a195.889,195.889,0,0,1,19.6-27.172c7.243-8.319,21.431-19,21.431-19,2.135-1.618,1.9-3.85-.523-4.993l-17.131-8a6.312,6.312,0,0,0-7.34,1.83s-12.662,18.2-27.58,56.892C48.321,55.387,4.492,84.608,4.492,135.425c0,53.066,40.837,133.693,96.044,109.343,58.175,25.159,96.092-56.277,96.092-109.343C196.628,84.158,157.215,54.1,106,76.7Z" transform="translate(-4.492)"></path></g><path class="cls-4" d="M95.665,59.522a5.953,5.953,0,0,0,5.248-5.248s1.715-20.762-12.753-35.23C73.644,4.552,52.93,6.285,52.93,6.285a5.918,5.918,0,0,0-5.23,5.231S45.943,32.3,60.435,46.763C74.9,61.231,95.665,59.522,95.665,59.522Z" transform="translate(-4.492)"></path></g><path class="cls-5" d="M160.865,216.068,25.13,184.468c13.834,34.1,44.43,63.868,69.682,49.545a15.151,15.151,0,0,1,15.33,0C126.847,243.481,145.88,233.666,160.865,216.068Z" transform="translate(-4.492)"></path><path class="cls-6" d="M152.191,207.23,16.459,175.63a111.065,111.065,0,0,1-4.245-12.476L177.136,155.7c-.358,1.883-.78,3.784-1.267,5.68A118.21,118.21,0,0,1,152.191,207.23Z" transform="translate(-4.492)"></path><path class="cls-7" d="M185.808,147.96,20.885,155.419a84.325,84.325,0,0,1-3.2-22.042c0-13.773,4-25.265,10.629-33.651l158.668,27.413q.28,3.033.282,6.238A77.851,77.851,0,0,1,185.808,147.96Z" transform="translate(-4.492)"></path><path class="cls-8" d="M176.978,118.688,18.31,91.275c14.115-17.863,40.165-21.611,64.873-3.182a15.377,15.377,0,0,0,18.575,0C136.269,62.36,173.385,79.869,176.978,118.688Z" transform="translate(-4.492)"></path><path class="cls-9" d="M155.911.12S72.558-6.248,82.4,73.631C162.277,83.47,155.911.12,155.911.12Z" transform="translate(-4.492)"></path><path class="cls-4" d="M64.966,183.744a.866.866,0,0,1-.985-.927L63.2,165.706a.865.865,0,0,1,.9-1.013l3.223-.146a.865.865,0,0,1,.985.926l.228,5.019,3.806-5.545a1.388,1.388,0,0,1,1.283-.687l4.192-.191c.628-.029.71.539.415.953l-4.724,6.731L79.5,182.224c.249.447.1.854-.531.882l-3.537.161c-.627.029-1.058-.037-1.34-.567l-4.141-7.471L68.8,176.4l.282,6.188a.866.866,0,0,1-.9,1.013Z" transform="translate(-4.492)"></path><path class="cls-4" d="M81.876,182.974a.865.865,0,0,1-.985-.927l-.778-17.111a.866.866,0,0,1,.9-1.013l3.223-.146a.866.866,0,0,1,.985.927L86,181.815a.867.867,0,0,1-.9,1.013Z" transform="translate(-4.492)"></path><path class="cls-4" d="M99.175,163.1a.857.857,0,0,1,.984.9l.112,2.452a.866.866,0,0,1-.9,1.013l-2.624.119c-.456.021-.565.14-.545.6l.6,13.147a.865.865,0,0,1-.9,1.012l-3.222.147a.867.867,0,0,1-.986-.928l-.6-13.146c-.02-.457-.139-.565-.6-.545l-2.624.12a.865.865,0,0,1-.984-.928l-.113-2.452a.859.859,0,0,1,.9-.984Z" transform="translate(-4.492)"></path><path class="cls-4" d="M106.944,176.232c.045,1,.341,1.213,1.339,1.168l4.563-.207a.866.866,0,0,1,1.013.9l.111,2.452a.873.873,0,0,1-.925,1.014l-5.647.257c-4.078.185-5.044-1.571-5.405-4.5-.083-.568-.281-3.645-.333-4.786s-.135-4.223-.1-4.8c.094-2.948.9-4.785,4.975-4.971l5.647-.256a.873.873,0,0,1,1.013.926l.111,2.451a.866.866,0,0,1-.926.987l-4.563.207c-1,.045-1.273.286-1.228,1.284Z" transform="translate(-4.492)"></path><path class="cls-4" d="M124.228,162.929a.865.865,0,0,1,.9-1.013l3.223-.146a.865.865,0,0,1,.985.927l.779,17.111a.867.867,0,0,1-.9,1.013l-3.222.146a.865.865,0,0,1-.985-.927l-.277-6.075c-.02-.456-.14-.565-.6-.544l-3.08.14c-.456.021-.565.141-.545.6l.277,6.074a.866.866,0,0,1-.9,1.013l-3.223.146a.865.865,0,0,1-.985-.926l-.778-17.111a.865.865,0,0,1,.9-1.013l3.223-.146a.865.865,0,0,1,.985.926l.251,5.533c.021.456.141.565.6.544l3.081-.14c.456-.021.565-.14.544-.6Z" transform="translate(-4.492)"></path><path class="cls-4" d="M144.486,176.724l.112,2.453a.857.857,0,0,1-.9.984l-10.466.477a.857.857,0,0,1-.984-.9L131.47,162.6a.865.865,0,0,1,.9-1.013l10.067-.458a.874.874,0,0,1,1.015.926l.111,2.452a.866.866,0,0,1-.927.986l-5.333.242c-.428.02-.564.168-.545.6l.071,1.539c.021.457.168.564.6.545l3.736-.17a.865.865,0,0,1,.985.927l.1,2.281a.857.857,0,0,1-.9.984l-3.735.17c-.428.019-.564.169-.544.6l.1,2.31c.02.456.167.564.595.544l5.733-.26A.865.865,0,0,1,144.486,176.724Z" transform="translate(-4.492)"></path><path class="cls-4" d="M156.988,179.557c-.6.027-.865-.161-1.271-.914l-4.609-8.364.389,8.556a.866.866,0,0,1-.9,1.013l-3.165.144a.866.866,0,0,1-.985-.928l-.778-17.111a.865.865,0,0,1,.9-1.012l3.479-.158c.6-.028.864.161,1.271.914l4.3,7.806-.363-7.985a.865.865,0,0,1,.9-1.013l3.165-.144a.866.866,0,0,1,.986.927l.778,17.111a.867.867,0,0,1-.9,1.013Z" transform="translate(-4.492)"></path><path class="cls-4" d="M38.864,131.809a.855.855,0,0,1,.979.9l.1,2.453a.867.867,0,0,1-.9,1.009l-2.624.107c-.457.018-.567.137-.548.593l.538,13.15a.867.867,0,0,1-.9,1.009l-3.223.131a.865.865,0,0,1-.981-.931l-.538-13.149c-.019-.457-.136-.566-.593-.548l-2.624.108a.866.866,0,0,1-.981-.932l-.1-2.453a.858.858,0,0,1,.9-.98Z" transform="translate(-4.492)"></path><path class="cls-4" d="M50.739,132.295a.866.866,0,0,1,.9-1.009l3.223-.132a.866.866,0,0,1,.981.932l.7,17.114a.865.865,0,0,1-.9,1.008l-3.224.132a.866.866,0,0,1-.98-.931l-.249-6.076c-.018-.456-.137-.565-.594-.547l-3.08.126c-.456.019-.566.138-.547.594l.249,6.076a.867.867,0,0,1-.9,1.008l-3.224.132a.867.867,0,0,1-.981-.932l-.7-17.114a.864.864,0,0,1,.9-1.008l3.223-.132a.865.865,0,0,1,.981.931L46.744,138c.019.456.138.565.594.547l3.08-.126c.457-.019.566-.137.548-.594Z" transform="translate(-4.492)"></path><path class="cls-4" d="M70.935,146.183l.1,2.453a.857.857,0,0,1-.9.98l-10.468.428a.857.857,0,0,1-.98-.9L57.982,132a.867.867,0,0,1,.9-1.009l10.07-.411a.873.873,0,0,1,1.009.93l.1,2.453a.865.865,0,0,1-.931.981l-5.334.218c-.428.017-.565.165-.547.593l.063,1.54c.018.457.166.565.593.548l3.737-.153a.866.866,0,0,1,.981.932l.093,2.281a.856.856,0,0,1-.9.98l-3.736.153c-.428.017-.565.166-.547.593l.094,2.311c.019.456.166.565.594.547l5.733-.234A.867.867,0,0,1,70.935,146.183Z" transform="translate(-4.492)"></path><path class="cls-4" d="M83.222,149.081,80,149.213a.878.878,0,0,1-.981-.931l-.7-17.115a.866.866,0,0,1,.9-1.008l9.641-.394a.874.874,0,0,1,1.01.93l.1,2.424a.874.874,0,0,1-.93,1.01l-4.907.2c-.427.017-.565.137-.547.593l.073,1.768c.017.429.166.565.593.548l3.737-.153a.858.858,0,0,1,.98.9l.1,2.482a.856.856,0,0,1-.9.979l-3.736.153c-.428.017-.565.166-.547.594l.241,5.9A.857.857,0,0,1,83.222,149.081Z" transform="translate(-4.492)"></path><path class="cls-4" d="M99.272,129.339c.6-.024.9.335,1.095.927l5.263,16.928c.2.592-.018.972-.616,1l-3.908.159c-.627.026-.841-.309-.981-.931l-.686-2.8c-.1-.453-.137-.566-.594-.547l-3.224.132c-.456.018-.479.134-.547.593l-.483,2.849c-.116.662-.275.983-.9,1.009l-3.793.155c-.6.024-.842-.338-.7-.944l3.949-17.3c.147-.606.417-.988,1.015-1.013Zm-1.283,10.567c.228-.01.25-.182.214-.352l-1.375-5.686-.934,5.809c-.021.172.013.314.241.305Z" transform="translate(-4.492)"></path><path class="cls-4" d="M111.828,140.884l.247,6.046a.866.866,0,0,1-.9,1.009l-3.223.131a.865.865,0,0,1-.981-.931l-.7-17.114a.867.867,0,0,1,.9-1.009l6.019-.246c4.078-.167,6.823,1.264,7,5.6.1,2.481-.8,4.119-2.539,5.018l3.353,7.235c.189.42.095.91-.619.939l-3.508.144c-.656.026-.836-.166-1.088-.756l-2.621-6.093c-.19-.45-.395-.584-.794-.568C111.947,140.307,111.81,140.455,111.828,140.884Zm-.206-5.05c.017.428.166.565.593.548l1.255-.052c1.113-.045,1.959-.308,1.9-1.763s-.925-1.648-2.038-1.6l-1.255.052c-.427.017-.564.166-.547.594Z" transform="translate(-4.492)"></path><path class="cls-4" d="M135.789,146.933a.866.866,0,0,1-.981-.932l-.359-8.785-1.981,4.681a.868.868,0,0,1-.946.61l-.941.038a.868.868,0,0,1-.993-.531l-2.325-4.476.357,8.757a.865.865,0,0,1-.9,1.008l-3.166.13a.867.867,0,0,1-.981-.932l-.7-17.114a.865.865,0,0,1,.9-1.008l3.566-.146c.6-.024.859.05,1.261.805l3.194,6.156,2.711-6.4c.339-.785.592-.881,1.191-.906l3.48-.142a.865.865,0,0,1,.981.932l.7,17.114a.866.866,0,0,1-.9,1.008Z" transform="translate(-4.492)"></path><path class="cls-4" d="M153.26,185.053l-2.981,3.821c-1.1,1.214-2.245.9-3.2,1.129,0,0-.38.589-1.286,1.748l-1.118-.943c1.086-1.042,1.647-1.489,1.647-1.489.133-.978-.3-2.089.8-3.3l3.5-3.35a.354.354,0,0,1,.524.474l-3.251,3.577.416.377,3.368-3.472a.354.354,0,0,1,.524.474l-3.116,3.7.416.377,3.233-3.594a.354.354,0,0,1,.524.474Zm-12.387,9.7c-2.468,2.729-3.825,3.3-4.987,4.586a1.561,1.561,0,0,0,2.262,2.045c1.162-1.285,1.595-2.692,4.063-5.421.828-.916,1.532-1.727,2.128-2.434l-1.217-1.18C142.469,193.024,141.719,193.82,140.873,194.755Zm6.929-.616c-.5-.448-5.366-4.54-5.686-4.808.712-1.087.595-2.51-.971-3.926a7.15,7.15,0,0,0-4.488-1.92,1.655,1.655,0,0,0-1.185.48c-1.013,1.121.248,3.912,2,5.5a3.657,3.657,0,0,0,2.581,1.133,2.443,2.443,0,0,0,1.422-.561c.3.291,4.859,4.727,5.353,5.175,1.051.95,2.626,3.169,4.758,5.1a1.486,1.486,0,0,0,1.074.408,1.266,1.266,0,0,0,.88-.411,1.362,1.362,0,0,0-.193-1.945C151.218,196.433,148.852,195.088,147.8,194.139Z" transform="translate(-4.492)"></path><path class="cls-4" d="M27.39,122.283a5.116,5.116,0,1,0,4.724-5.478A5.115,5.115,0,0,0,27.39,122.283Zm2.747-.2a2.362,2.362,0,1,1,2.528,2.182A2.361,2.361,0,0,1,30.137,122.08Z" transform="translate(-4.492)"></path><path class="cls-4" d="M44.36,122.06a4.088,4.088,0,1,0,3.774-4.378A4.088,4.088,0,0,0,44.36,122.06Zm2.2-.162a1.887,1.887,0,1,1,2.019,1.744A1.887,1.887,0,0,1,46.555,121.9Z" transform="translate(-4.492)"></path><path class="cls-4" d="M38.393,121.47a6.03,6.03,0,0,1-.012.942l5.287-.39a4.777,4.777,0,0,1,7.125-4.42l-.148-2.012a2.26,2.26,0,0,0-2.421-2.086l-1.432.1-.162-2.191c-.066-.9.175-1.065.776-1.109l-.111-1.5c-.879.065-2.331.5-2.167,2.722l.162,2.191-5.578.413-1.473-6.311,1.376-.1a1.13,1.13,0,0,0-.167-2.254l-10.015.74.512,6.93c-3.51,1.786-2.691,6.02-2.691,6.02a5.89,5.89,0,0,1,3.712-2.954c.062-.018.124-.038.186-.053a5.822,5.822,0,0,1,.9-.144A5.917,5.917,0,0,1,38.393,121.47Zm-.523-6.7-2.232.165L35.1,112.27l-2,.148-.268-3.631,3.692-.273Z" transform="translate(-4.492)"></path></g></g></svg> 